<?xml version="1.0" encoding="UTF-8"?> <svg xmlns="http://www.w3.org/2000/svg" width="202" height="43" viewBox="0 0 202 43" fill="none"><path d="M129.264 31.5077C127.657 31.5449 126.06 31.255 124.568 30.6558C123.077 30.0566 121.724 29.1606 120.591 28.0223C119.457 26.884 118.568 25.5272 117.977 24.0347C117.385 22.5421 117.104 20.945 117.151 19.3405C117.11 17.7377 117.396 16.1432 117.989 14.6534C118.583 13.1636 119.472 11.8093 120.604 10.6723C121.736 9.53523 123.087 8.63898 124.576 8.03762C126.064 7.43626 127.659 7.14225 129.264 7.17334C130.888 7.11987 132.503 7.43453 133.987 8.09369C135.472 8.75284 136.787 9.73935 137.835 10.9791L135.682 13.0589C134.918 12.0945 133.941 11.3195 132.828 10.7943C131.715 10.2691 130.495 10.008 129.264 10.0312C128.064 10.002 126.871 10.2178 125.758 10.6654C124.644 11.1131 123.634 11.7831 122.79 12.6344C121.923 13.5165 121.247 14.5668 120.804 15.7203C120.36 16.8738 120.158 18.106 120.211 19.3405C120.158 20.5751 120.36 21.8072 120.804 22.9608C121.247 24.1143 121.923 25.1646 122.79 26.0467C123.634 26.898 124.644 27.568 125.758 28.0157C126.871 28.4633 128.064 28.6791 129.264 28.6499C130.626 28.6433 131.969 28.3323 133.195 27.7399C134.42 27.1474 135.498 26.2885 136.348 25.2261L138.53 27.3483C137.425 28.6667 136.035 29.7166 134.464 30.4184C132.83 31.1542 131.056 31.5259 129.264 31.5077Z" fill="#5F6368"></path><path d="M143.956 7.69679V30.9842H140.952V7.69679H143.956Z" fill="#5F6368"></path><path d="M146.534 23.019C146.499 21.9031 146.686 20.7914 147.082 19.7475C147.478 18.7036 148.077 17.748 148.843 16.9354C149.606 16.1459 150.526 15.5242 151.543 15.11C152.56 14.6959 153.653 14.4984 154.751 14.5302C155.843 14.4955 156.93 14.6919 157.941 15.1064C158.952 15.5209 159.864 16.1442 160.616 16.9354C161.393 17.742 162 18.696 162.402 19.7409C162.803 20.7858 162.991 21.9004 162.954 23.019C162.995 24.138 162.809 25.2538 162.408 26.2993C162.006 27.3448 161.397 28.2983 160.616 29.1026C159.862 29.8909 158.95 30.5123 157.939 30.9266C156.929 31.3409 155.843 31.5389 154.751 31.5077C153.653 31.5361 152.562 31.3371 151.545 30.9231C150.528 30.5092 149.608 29.8893 148.843 29.1026C148.077 28.29 147.478 27.3344 147.082 26.2905C146.686 25.2466 146.499 24.1349 146.534 23.019ZM149.537 23.019C149.451 24.5365 149.959 26.0281 150.954 27.1785C151.432 27.6842 152.009 28.087 152.648 28.3624C153.288 28.6377 153.977 28.7797 154.673 28.7797C155.37 28.7797 156.059 28.6377 156.698 28.3624C157.338 28.087 157.914 27.6842 158.392 27.1785C159.418 26.0412 159.957 24.5482 159.894 23.019C159.954 21.4988 159.415 20.0156 158.392 18.8878C157.927 18.3665 157.354 17.9514 156.714 17.6706C156.073 17.3899 155.38 17.2501 154.68 17.2608C153.993 17.2637 153.315 17.41 152.688 17.6902C152.061 17.9703 151.499 18.3783 151.039 18.8878C150.015 20.0148 149.476 21.4985 149.537 23.019Z" fill="#5F6368"></path><path d="M179.53 30.9843H176.696V28.7772H176.54C176.034 29.6076 175.309 30.283 174.444 30.7297C173.545 31.2383 172.53 31.5064 171.497 31.5078C170.669 31.5614 169.838 31.4405 169.059 31.1529C168.281 30.8652 167.572 30.4174 166.978 29.8383C165.858 28.5108 165.294 26.8028 165.405 25.0705V15.0396H168.394V24.8724C168.333 25.3987 168.392 25.9318 168.566 26.4322C168.74 26.9327 169.025 27.3874 169.4 27.7627C169.774 28.1379 170.228 28.424 170.729 28.5997C171.229 28.7754 171.763 28.836 172.29 28.7772C172.864 28.7851 173.431 28.6616 173.949 28.4164C174.468 28.1711 174.923 27.8106 175.28 27.3625C176.085 26.3893 176.513 25.1587 176.484 23.8962V15.0396H179.487L179.53 30.9843Z" fill="#5F6368"></path><path d="M189.674 31.5077C188.652 31.5114 187.642 31.2917 186.714 30.864C185.787 30.4363 184.964 29.8109 184.305 29.0318C182.869 27.3538 182.08 25.2191 182.08 23.0119C182.08 20.8047 182.869 18.67 184.305 16.992C184.969 16.2199 185.793 15.6002 186.72 15.1754C187.647 14.7505 188.654 14.5305 189.674 14.5302C190.79 14.5133 191.893 14.7656 192.89 15.2659C193.797 15.7201 194.565 16.409 195.114 17.2608H195.256L195.114 15.0396V7.69679H198.118V30.9842H195.284V28.7772H195.143C194.597 29.6284 193.827 30.3135 192.918 30.7579C191.916 31.2736 190.801 31.5313 189.674 31.5077ZM190.17 28.7772C190.853 28.7952 191.532 28.661 192.157 28.3845C192.782 28.108 193.337 27.696 193.783 27.1785C194.773 26.0258 195.281 24.5359 195.199 23.019C195.271 21.5121 194.764 20.0347 193.783 18.8878C193.341 18.3635 192.787 17.9451 192.162 17.6635C191.536 17.3818 190.856 17.2442 190.17 17.2608C189.485 17.2482 188.805 17.3877 188.18 17.669C187.556 17.9504 187.001 18.3666 186.557 18.8878C185.576 20.0347 185.069 21.5121 185.14 23.019C185.065 24.5265 185.572 26.0055 186.557 27.1502C187.001 27.6713 187.556 28.0876 188.18 28.3689C188.805 28.6503 189.485 28.7897 190.17 28.7772Z" fill="#5F6368"></path><path d="M17.2562 31.5076C13.758 31.5076 10.4031 30.1198 7.92957 27.6497C5.45599 25.1795 4.06635 21.8292 4.06635 18.3358C4.06635 14.8425 5.45599 11.4922 7.92957 9.02205C10.4031 6.55187 13.758 5.16415 17.2562 5.16415C18.926 5.13874 20.5841 5.44595 22.1336 6.06783C23.6832 6.6897 25.093 7.61376 26.2809 8.78601L23.7449 11.3609C22.006 9.6827 19.6743 8.7574 17.2562 8.78601C14.7781 8.88117 12.4332 9.93119 10.7136 11.7157C8.99401 13.5002 8.03343 15.8805 8.03343 18.3571C8.03343 20.8336 8.99401 23.2139 10.7136 24.9984C12.4332 26.783 14.7781 27.833 17.2562 27.9281C18.4887 27.9794 19.7183 27.7716 20.8653 27.3183C22.0123 26.865 23.0513 26.1762 23.9149 25.2966C25.058 24.0501 25.7469 22.4551 25.87 20.7693H17.157V17.1474H29.3694C29.5075 17.8892 29.5739 18.6425 29.5677 19.3969C29.6877 22.5258 28.5678 25.5759 26.4509 27.8857C25.261 29.1032 23.8265 30.0553 22.2418 30.6795C20.6571 31.3038 18.958 31.586 17.2562 31.5076Z" fill="#4285F4"></path><path d="M47.8578 23.0189C47.8578 24.6979 47.3592 26.3391 46.4252 27.735C45.4912 29.131 44.1636 30.219 42.6103 30.8615C41.0571 31.504 39.3479 31.6721 37.699 31.3446C36.05 31.017 34.5354 30.2086 33.3466 29.0214C32.1578 27.8342 31.3482 26.3217 31.0202 24.675C30.6922 23.0284 30.8606 21.3216 31.5039 19.7704C32.1473 18.2193 33.2368 16.8936 34.6347 15.9608C36.0326 15.0281 37.6761 14.5302 39.3573 14.5302C40.4773 14.5169 41.5887 14.7274 42.626 15.1493C43.6633 15.5712 44.6057 16.196 45.3977 16.9869C46.1897 17.7778 46.8153 18.7189 47.2378 19.7548C47.6603 20.7907 47.8711 21.9005 47.8578 23.0189ZM44.1318 23.0189C44.1671 22.37 44.0697 21.7207 43.8454 21.1107C43.6211 20.5006 43.2746 19.9426 42.8271 19.4708C42.3796 18.9989 41.8405 18.6231 41.2428 18.3662C40.645 18.1094 40.001 17.9769 39.3502 17.9769C38.6995 17.9769 38.0555 18.1094 37.4577 18.3662C36.8599 18.6231 36.3208 18.9989 35.8734 19.4708C35.4259 19.9426 35.0794 20.5006 34.8551 21.1107C34.6308 21.7207 34.5334 22.37 34.5687 23.0189C34.5334 23.6679 34.6308 24.3172 34.8551 24.9272C35.0794 25.5373 35.4259 26.0953 35.8734 26.5671C36.3208 27.039 36.8599 27.4148 37.4577 27.6716C38.0555 27.9285 38.6995 28.0609 39.3502 28.0609C40.001 28.0609 40.645 27.9285 41.2428 27.6716C41.8405 27.4148 42.3796 27.039 42.8271 26.5671C43.2746 26.0953 43.6211 25.5373 43.8454 24.9272C44.0697 24.3172 44.1671 23.6679 44.1318 23.0189Z" fill="#EA4335"></path><path d="M66.3749 23.019C66.3749 24.6979 65.8764 26.3391 64.9423 27.7351C64.0083 29.131 62.6807 30.2191 61.1275 30.8616C59.5742 31.504 57.865 31.6722 56.2161 31.3446C54.5672 31.0171 53.0526 30.2086 51.8637 29.0214C50.6749 27.8343 49.8654 26.3217 49.5374 24.675C49.2094 23.0284 49.3777 21.3216 50.0211 19.7705C50.6645 18.2194 51.754 16.8936 53.1519 15.9608C54.5498 15.0281 56.1932 14.5302 57.8745 14.5302C58.995 14.515 60.1072 14.7242 61.1454 15.1454C62.1836 15.5666 63.1268 16.1913 63.9192 16.9826C64.7116 17.7739 65.3371 18.7158 65.7589 19.7525C66.1807 20.7893 66.3902 21.9 66.3749 23.019ZM62.6489 23.019C62.6843 22.3701 62.5868 21.7208 62.3625 21.1107C62.1382 20.5006 61.7917 19.9427 61.3443 19.4708C60.8968 18.9989 60.3577 18.6231 59.7599 18.3663C59.1621 18.1094 58.5182 17.977 57.8674 17.977C57.2166 17.977 56.5727 18.1094 55.9749 18.3663C55.3771 18.6231 54.838 18.9989 54.3905 19.4708C53.943 19.9427 53.5966 20.5006 53.3722 21.1107C53.1479 21.7208 53.0505 22.3701 53.0859 23.019C53.0505 23.6679 53.1479 24.3172 53.3722 24.9272C53.5966 25.5373 53.943 26.0953 54.3905 26.5672C54.838 27.039 55.3771 27.4148 55.9749 27.6717C56.5727 27.9285 57.2166 28.061 57.8674 28.061C58.5182 28.061 59.1621 27.9285 59.7599 27.6717C60.3577 27.4148 60.8968 27.039 61.3443 26.5672C61.7917 26.0953 62.1382 25.5373 62.3625 24.9272C62.5868 24.3172 62.6843 23.6679 62.6489 23.019Z" fill="#FBBC04"></path><path d="M84.0983 15.0537V30.2768C84.0983 36.5443 80.4006 39.1193 76.0228 39.1193C74.4121 39.1273 72.8356 38.6549 71.4953 37.7626C70.1551 36.8703 69.1121 35.5988 68.4999 34.1109L71.7443 32.6961C72.0741 33.5636 72.6537 34.314 73.4101 34.8529C74.1665 35.3917 75.0658 35.6947 75.9945 35.7238C78.828 35.7238 80.5281 33.9836 80.5281 30.7437V29.527H80.4006C79.8475 30.1598 79.163 30.6647 78.3948 31.0068C77.6266 31.3488 76.793 31.5198 75.952 31.5077C73.6975 31.5077 71.5354 30.6133 69.9413 29.0214C68.3471 27.4294 67.4515 25.2703 67.4515 23.0189C67.4515 20.7676 68.3471 18.6084 69.9413 17.0165C71.5354 15.4245 73.6975 14.5302 75.952 14.5302C76.7885 14.5083 77.6199 14.6663 78.3899 14.9934C79.1599 15.3205 79.8504 15.809 80.4147 16.426H80.5422V15.0112L84.0983 15.0537ZM80.8114 23.0614C80.8675 22.4214 80.7935 21.7767 80.5938 21.1661C80.3941 20.5554 80.0729 19.9913 79.6495 19.5077C79.2261 19.024 78.7091 18.6308 78.1298 18.3517C77.5504 18.0726 76.9205 17.9132 76.2779 17.8833C75.6252 17.9066 74.9838 18.06 74.3914 18.3344C73.7989 18.6088 73.2674 18.9986 72.8279 19.481C72.3884 19.9633 72.0498 20.5285 71.8321 21.1434C71.6144 21.7582 71.5219 22.4103 71.5601 23.0614C71.5278 23.7076 71.6248 24.3537 71.8455 24.962C72.0662 25.5703 72.4061 26.1285 72.8453 26.6041C73.2846 27.0796 73.8144 27.463 74.4038 27.7316C74.9932 28.0003 75.6303 28.1489 76.2779 28.1688C76.9153 28.1422 77.5408 27.9876 78.117 27.7141C78.6933 27.4407 79.2084 27.054 79.6316 26.5773C80.0548 26.1005 80.3774 25.5434 80.5801 24.9393C80.7828 24.3352 80.8615 23.6965 80.8114 23.0614Z" fill="#4285F4"></path><path d="M90.502 6.05565V30.9843H86.776V6.05565H90.502Z" fill="#34A853"></path><path d="M104.953 25.8203L107.786 27.7444C107.007 28.9056 105.953 29.8567 104.717 30.5132C103.481 31.1697 102.102 31.5114 100.702 31.5077C99.5864 31.5213 98.4789 31.3104 97.4462 30.8875C96.4135 30.4646 95.4765 29.8385 94.6913 29.0463C93.906 28.2542 93.2884 27.3123 92.8754 26.2768C92.4623 25.2413 92.2622 24.1334 92.287 23.019C92.2275 21.9303 92.3901 20.8408 92.7649 19.8167C93.1397 18.7926 93.719 17.8553 94.4675 17.0615C95.216 16.2677 96.1182 15.634 97.1194 15.1989C98.1205 14.7638 99.1998 14.5363 100.292 14.5302C101.911 14.5753 103.476 15.1168 104.777 16.0811C106.077 17.0454 107.048 18.3859 107.559 19.9206L107.942 20.8826L96.6081 25.5798C96.9578 26.3691 97.5359 27.0359 98.268 27.4947C99.0001 27.9536 99.8528 28.1834 100.717 28.1547C101.566 28.1704 102.404 27.963 103.147 27.5533C103.891 27.1436 104.513 26.5459 104.953 25.8203ZM96.0555 22.7643L103.635 19.6235C103.347 19.0465 102.895 18.5671 102.336 18.245C101.776 17.923 101.134 17.7726 100.49 17.8126C99.8713 17.8413 99.2646 17.9929 98.7053 18.2585C98.1459 18.5241 97.6452 18.8983 97.2324 19.3593C96.8195 19.8204 96.5028 20.3589 96.3008 20.9435C96.0987 21.5282 96.0153 22.1472 96.0555 22.7643Z" fill="#EA4335"></path></svg> 